<svg xmlns="http://www.w3.org/2000/svg" fill="none" viewBox="0 0 24 24" id="Launchdarkly-Icon--Streamline-Svg-Logos" height="24" width="24">
  <desc>
    Launchdarkly Icon Streamline Icon: https://streamlinehq.com
  </desc>
  <path fill="#000000" d="M12.17125 23.71815c-0.1979 0.0004 -0.378675 -0.1121 -0.465725 -0.289775 -0.08435 -0.167275 -0.0663 -0.36795 0.04655 -0.517475L17.258 15.329925 7.617475 19.267875c-0.065325 0.028425 -0.135725 0.043375 -0.206975 0.044 -0.229025 -0.00115 -0.430075 -0.1527 -0.4942 -0.372575 -0.065725 -0.215125 0.021325 -0.447575 0.212175 -0.56665L15.60725 13.366125 0.67818 12.5071C0.4306075 12.46375 0.25 12.24875 0.25 11.9974s0.1806075 -0.46635 0.42818 -0.5097l14.936845 -0.856425 -8.481375 -5.00655c-0.19085 -0.11905 -0.2779 -0.3515 -0.212175 -0.566625 0.06385 -0.21895 0.26355 -0.3703 0.4916 -0.372575 0.071625 -0.00025 0.142375 0.015675 0.207 0.046575l9.6431 3.943125L11.75725 1.0968475c-0.11285 -0.149525 -0.1309 -0.3501975 -0.04655 -0.51747 0.084425 -0.17988 0.264425 -0.2955175 0.463125 -0.2975475 0.13595 0.0009025 0.265725 0.0569225 0.35965 0.1552425l10.973 10.9704025c0.3247 0.32525 0.3247 0.852 0 1.17725L12.5283 23.568075c-0.094 0.096025 -0.2227 0.150075 -0.35705 0.150075Z" stroke-width="0.25"></path>
</svg>